<svg width="402" height="157" viewBox="0 0 402 157" fill="none" xmlns="http://www.w3.org/2000/svg">
<g clip-path="url(#clip0_1_5367)">
<path d="M189.359 69.0612C187.931 68.5093 186.377 67.9749 184.674 67.3937C183.874 67.1251 183.033 66.8535 182.175 66.6228L178.373 76.023L164.969 109.103H180.452L190.997 82.2052L191.184 81.6971L195.132 71.5492L189.359 69.0612ZM225.631 41.8242L208.93 0.5L187.568 53.254L182.744 65.1948C183.518 65.0488 184.274 64.9028 184.99 64.7509C186.733 64.418 188.266 64.0764 189.607 63.7172L199.252 60.9371C199.252 60.9371 201.396 54.9214 203.644 48.4181C206.141 41.2898 208.79 33.5862 209.058 32.4035C209.35 33.6271 211.453 39.7917 213.407 45.4949C215.296 50.912 217.042 55.9143 217.042 55.9143L229.921 52.3633L225.631 41.8242Z" fill="#550495"/>
<path d="M187.933 69.0612C186.502 68.5093 184.951 67.9749 183.252 67.3937C182.451 67.1251 181.61 66.8535 180.752 66.6228L176.95 76.023L163.555 109.103H179.029L189.568 82.2052L189.758 81.6971L193.703 71.5492L187.933 69.0612ZM224.193 41.8242L207.501 0.5L186.149 53.254L181.318 65.1948C182.092 65.0488 182.852 64.9028 183.567 64.7509C185.307 64.418 186.844 64.0764 188.184 63.7172L197.827 60.9371C197.827 60.9371 199.967 54.9214 202.213 48.4181C204.71 41.2898 207.355 33.5862 207.627 32.4035C207.922 33.6271 210.021 39.7917 211.978 45.4949C213.862 50.912 215.605 55.9143 215.605 55.9143L228.48 52.3633L224.193 41.8242Z" fill="#550495"/>
<path d="M252.83 109.081L234.135 100.79L228.555 85.9523L221.785 68.0688L217.043 55.9148L229.915 52.3638L246.721 93.9303L252.83 109.081Z" fill="#550495"/>
<path d="M251.384 109.081L232.695 100.79L227.114 85.9523L220.351 68.0688L215.605 55.9148L228.475 52.3638L245.272 93.9303L251.384 109.081Z" fill="#550495"/>
<path d="M228.55 85.9567L221.723 82.9635L209.668 77.8093L195.134 71.5541L189.361 69.0661C187.93 68.5083 186.373 67.9739 184.674 67.3899C183.874 67.1271 183.039 66.8584 182.177 66.6189C181.231 66.3269 180.241 66.067 179.216 65.7721C180.451 65.5793 181.625 65.3895 182.741 65.1968C183.517 65.0537 184.28 64.9077 184.989 64.7617C186.733 64.4229 188.266 64.0813 189.606 63.7221L199.252 60.9449L210.655 57.686L217.039 55.9192L229.911 52.3682L225.63 41.8262L213.409 45.4998L213.026 45.6283L204.207 48.2595L203.641 48.423L187.574 53.256L151.512 64.0813L178.375 76.0279L191.186 81.7049L234.14 100.794L228.55 85.9567Z" fill="#550495"/>
<path d="M227.114 85.9567L220.292 82.9635L208.24 77.8093L193.709 71.5541L187.936 69.0661C186.508 68.5083 184.955 67.9739 183.252 67.3899C182.455 67.1271 181.614 66.8584 180.761 66.6189C179.806 66.3269 178.822 66.067 177.797 65.7721C179.038 65.5793 180.206 65.3895 181.322 65.1968C182.101 65.0537 182.855 64.9077 183.57 64.7617C185.311 64.4229 186.844 64.0813 188.184 63.7221L197.824 60.9449L209.225 57.686L215.605 55.9192L228.481 52.3682L224.194 41.8262L211.975 45.4998L211.596 45.6283L202.78 48.2595L202.213 48.423L186.146 53.256L150.102 64.0813L176.956 76.0279L189.761 81.7049L232.703 100.794L227.114 85.9567Z" fill="#550495"/>
<path d="M1.35938 4.96704V19.3988H25.5097V109.438H40.2569V19.3988H64.2466V4.96704H1.35938Z" fill="#550495"/>
<path d="M-0.00390625 4.96704V19.3988H24.1435V109.438H38.8819V19.3988H62.8629V4.96704H-0.00390625Z" fill="#550495"/>
<path d="M134.977 4.96704V43.5199H90.3242V4.96704H75.5391V109.438H90.3242V58.7139H134.977V109.438H149.701V4.96704H134.977Z" fill="#550495"/>
<path d="M133.575 4.96704V43.5199H88.9394V4.96704H74.1602V109.438H88.9394V58.7139H133.575V109.438H148.293V4.96704H133.575Z" fill="#550495"/>
<path d="M269.422 49.5064V19.5477H272.071C279.526 19.5477 284.625 20.7042 287.381 23.0725C290.135 25.4145 291.475 29.4766 291.475 35.2206C291.475 40.5647 290.193 44.2675 287.656 46.3701C285.071 48.4493 279.903 49.5064 272.071 49.5064H269.422ZM314.834 106.06L285.804 61.9057C292.652 60.9567 297.815 58.1357 301.346 53.3991C304.856 48.6595 306.62 42.1124 306.62 33.7255C306.62 28.9684 305.863 24.5939 304.33 20.6107C302.8 16.5954 300.63 13.3598 297.798 10.8192C295.444 8.74582 292.629 7.24189 289.294 6.32202C285.953 5.43427 281.266 4.96704 275.242 4.96704H254.637V109.441H268.499V62.7059H270.178L300.376 109.441H317.057L314.834 106.06Z" fill="#550495"/>
<path d="M267.967 49.5064V19.5477H270.613C278.068 19.5477 283.167 20.7042 285.923 23.0725C288.671 25.4145 290.012 29.4766 290.012 35.2206C290.012 40.5647 288.73 44.2675 286.195 46.3701C283.613 48.4493 278.445 49.5064 270.613 49.5064H267.967ZM313.362 106.06L284.346 61.9057C291.194 60.9567 296.351 58.1357 299.882 53.3991C303.389 48.6595 305.153 42.1124 305.153 33.7255C305.153 28.9684 304.397 24.5939 302.864 20.6107C301.333 16.5954 299.167 13.3598 296.334 10.8192C293.983 8.74582 291.168 7.24189 287.83 6.32202C284.492 5.43427 279.808 4.96704 273.787 4.96704H253.188V109.441H267.047V62.7059H268.723L298.915 109.441H315.584L313.362 106.06Z" fill="#550495"/>
<path d="M344.955 68.4067L354.25 44.5776C354.842 42.9102 355.392 41.0967 355.955 39.1138C356.504 37.131 357.033 35.008 357.532 32.7361C358.139 35.154 358.686 37.353 359.296 39.3358C359.865 41.3186 360.408 43.0532 360.957 44.5776L370.238 68.4067H344.955ZM357.409 0.838379L314.832 106.054L313.445 109.442H328.966L339.511 82.5435H375.471L385.765 109.442H401.353L357.409 0.838379Z" fill="#550495"/>
<path d="M343.471 68.4067L352.769 44.5776C353.359 42.9102 353.911 41.0967 354.475 39.1138C355.021 37.131 355.546 35.008 356.049 32.7361C356.656 35.154 357.205 37.353 357.813 39.3358C358.376 41.3186 358.922 43.0532 359.474 44.5776L368.749 68.4067H343.471ZM355.923 0.838379L313.361 106.054L311.977 109.442H327.495L338.037 82.5435H373.985L384.27 109.442H399.846L355.923 0.838379Z" fill="#550495"/>
<path d="M93.0168 125.888H86.1367V155.555H93.0168V125.888Z" fill="#550495"/>
<path d="M123.267 155.555H116.387L104.884 137.256V155.555H98.0039V125.888H104.884L116.387 144.274V125.888H123.267V155.555Z" fill="#550495"/>
<path d="M138.838 125.888C141.816 125.888 144.418 126.51 146.644 127.748C148.869 128.989 150.592 130.73 151.812 132.97C153.033 135.206 153.643 137.794 153.643 140.723C153.643 143.625 153.033 146.201 151.812 148.455C150.592 150.71 148.863 152.456 146.623 153.697C144.383 154.935 141.79 155.555 138.838 155.555H128.258V125.888H138.838ZM138.397 149.302C140.999 149.302 143.023 148.555 144.471 147.063C145.919 145.567 146.644 143.456 146.644 140.723C146.644 137.989 145.919 135.863 144.471 134.342C143.023 132.821 140.999 132.058 138.397 132.058H135.138V149.302H138.397Z" fill="#550495"/>
<path d="M164.263 125.888V143.637C164.263 145.413 164.678 146.779 165.51 147.737C166.342 148.695 167.56 149.174 169.169 149.174C170.778 149.174 172.013 148.695 172.872 147.737C173.73 146.779 174.16 145.413 174.16 143.637V125.888H181.037V143.596C181.037 146.245 180.502 148.485 179.428 150.316C178.356 152.147 176.913 153.525 175.103 154.457C173.292 155.385 171.274 155.85 169.049 155.85C166.824 155.85 164.832 155.391 163.074 154.477C161.319 153.56 159.932 152.182 158.913 150.336C157.894 148.491 157.383 146.245 157.383 143.596V125.888H164.263Z" fill="#550495"/>
<path d="M196.086 155.853C194.019 155.853 192.17 155.499 190.532 154.795C188.897 154.092 187.591 153.049 186.61 151.668C185.632 150.287 185.115 148.625 185.062 146.683H192.384C192.492 147.781 192.854 148.619 193.47 149.197C194.086 149.776 194.892 150.062 195.885 150.062C196.904 150.062 197.707 149.816 198.297 149.323C198.887 148.829 199.182 148.146 199.182 147.273C199.182 146.54 198.948 145.935 198.478 145.457C198.008 144.978 197.433 144.583 196.749 144.274C196.066 143.964 195.093 143.611 193.832 143.217C192.01 142.624 190.52 142.034 189.367 141.441C188.213 140.851 187.221 139.978 186.391 138.822C185.559 137.665 185.141 136.158 185.141 134.301C185.141 131.539 186.096 129.378 188 127.812C189.904 126.25 192.384 125.468 195.441 125.468C198.551 125.468 201.06 126.25 202.964 127.812C204.868 129.378 205.887 131.553 206.021 134.342H198.58C198.525 133.384 198.189 132.631 197.573 132.082C196.957 131.533 196.165 131.258 195.199 131.258C194.369 131.258 193.698 131.489 193.189 131.953C192.678 132.421 192.424 133.089 192.424 133.962C192.424 134.92 192.854 135.665 193.712 136.202C194.571 136.737 195.911 137.315 197.733 137.934C199.559 138.582 201.039 139.201 202.181 139.794C203.32 140.387 204.304 141.246 205.136 142.373C205.968 143.5 206.383 144.948 206.383 146.724C206.383 148.415 205.974 149.951 205.157 151.329C204.339 152.71 203.15 153.808 201.597 154.626C200.04 155.444 198.204 155.853 196.086 155.853Z" fill="#550495"/>
<path d="M230.921 125.888V131.679H223.44V155.555H216.56V131.679H209.078V125.888H230.921Z" fill="#550495"/>
<path d="M248.782 155.555L242.909 144.355H241.259V155.555H234.379V125.888H245.926C248.151 125.888 250.049 126.297 251.617 127.114C253.185 127.932 254.359 129.051 255.136 130.476C255.916 131.898 256.304 133.481 256.304 135.23C256.304 137.201 255.775 138.962 254.715 140.512C253.655 142.06 252.093 143.158 250.028 143.806L256.546 155.555H248.782ZM241.259 139.242H245.523C246.784 139.242 247.727 138.921 248.358 138.273C248.989 137.624 249.304 136.707 249.304 135.525C249.304 134.397 248.989 133.51 248.358 132.861C247.727 132.213 246.784 131.889 245.523 131.889H241.259V139.242Z" fill="#550495"/>
<path d="M267.489 125.888H260.609V155.555H267.489V125.888Z" fill="#550495"/>
<path d="M279.354 131.679V137.68H288.567V143.257H279.354V149.767H289.773V155.555H272.477V125.888H289.773V131.679H279.354Z" fill="#550495"/>
<path d="M304.461 155.853C302.394 155.853 300.545 155.499 298.907 154.795C297.272 154.092 295.966 153.049 294.985 151.668C294.007 150.287 293.49 148.625 293.438 146.683H300.759C300.867 147.781 301.229 148.619 301.845 149.197C302.461 149.776 303.267 150.062 304.26 150.062C305.279 150.062 306.082 149.816 306.672 149.323C307.262 148.829 307.557 148.146 307.557 147.273C307.557 146.54 307.323 145.935 306.853 145.457C306.383 144.978 305.808 144.583 305.124 144.274C304.441 143.964 303.469 143.611 302.207 143.217C300.385 142.624 298.895 142.034 297.742 141.441C296.588 140.851 295.596 139.978 294.766 138.822C293.934 137.665 293.519 136.158 293.519 134.301C293.519 131.539 294.471 129.378 296.375 127.812C298.279 126.25 300.759 125.468 303.816 125.468C306.929 125.468 309.435 126.25 311.339 127.812C313.243 129.378 314.262 131.553 314.396 134.342H306.955C306.9 133.384 306.564 132.631 305.948 132.082C305.332 131.533 304.54 131.258 303.574 131.258C302.744 131.258 302.073 131.489 301.565 131.953C301.053 132.421 300.799 133.089 300.799 133.962C300.799 134.92 301.229 135.665 302.087 136.202C302.946 136.737 304.286 137.315 306.108 137.934C307.934 138.582 309.414 139.201 310.556 139.794C311.695 140.387 312.679 141.246 313.511 142.373C314.343 143.5 314.758 144.948 314.758 146.724C314.758 148.415 314.349 149.951 313.532 151.329C312.714 152.71 311.525 153.808 309.972 154.626C308.415 155.444 306.579 155.853 304.461 155.853Z" fill="#550495"/>
<path d="M75.5406 140.239H24.1445V144.298H75.5406V140.239Z" fill="#550495"/>
<path d="M401.354 140.239H327.168V144.298H401.354V140.239Z" fill="#550495"/>
</g>
<defs>
<clipPath id="clip0_1_5367">
<rect width="401.59" height="155.59" fill="white" transform="translate(0 0.5)"/>
</clipPath>
</defs>
</svg>
