<svg width="36" height="37" viewBox="0 0 36 37" fill="none" xmlns="http://www.w3.org/2000/svg">
<path d="M13.7579 22.7779C13.2565 22.5941 12.7126 22.4181 12.1153 22.2251C11.8352 22.1359 11.5413 22.0467 11.2403 21.9691L9.908 25.0866L5.21094 36.0523H10.6368L14.3312 27.1356L14.3977 26.9672L15.7811 23.6036L13.7579 22.7779ZM26.4688 13.7481L20.6166 0.0507812L13.1312 17.5376L11.4391 21.4963C11.7107 21.4486 11.9761 21.3994 12.2267 21.3502C12.8372 21.2387 13.3749 21.1264 13.8445 21.0073L17.2248 20.0847C17.2248 20.0847 17.976 18.0911 18.7636 15.9354C19.6387 13.572 20.5663 11.0172 20.6615 10.6259C20.7644 11.0326 21.5001 13.0761 22.1856 14.9659C22.8471 16.7611 23.4591 18.4202 23.4591 18.4202L27.9713 17.2424L26.4688 13.7481Z" fill="#550495"/>
<path d="M13.2579 22.7779C12.7573 22.5941 12.2134 22.4181 11.6169 22.2251C11.3368 22.1359 11.0428 22.0467 10.7419 21.9691L9.40958 25.0866L4.71484 36.0523H10.1384L13.832 27.1356L13.8977 26.9672L15.2803 23.6036L13.2579 22.7779ZM25.9649 13.7481L20.1151 0.0507812L12.632 17.5376L10.9399 21.4963C11.2115 21.4486 11.4776 21.3994 11.7275 21.3502C12.338 21.2387 12.8757 21.1264 13.3453 21.0073L16.724 20.0847C16.724 20.0847 17.4753 18.0911 18.2629 15.9354C19.1372 13.572 20.064 11.0172 20.16 10.6259C20.2629 11.0326 20.9979 13.0761 21.6833 14.9659C22.3441 16.7611 22.9561 18.4202 22.9561 18.4202L27.4667 17.2424L25.9649 13.7481Z" fill="#550495"/>
<path d="M35.9993 36.0459L29.4477 33.2974L27.491 28.3793L25.1205 22.4501L23.457 18.4215L27.9692 17.2437L33.8577 31.0232L35.9993 36.0459Z" fill="#550495"/>
<path d="M35.4946 36.0459L28.9462 33.2974L26.9895 28.3793L24.6197 22.4501L22.957 18.4215L27.4676 17.2437L33.3538 31.0232L35.4946 36.0459Z" fill="#550495"/>
<path d="M27.4939 28.3782L25.1017 27.3856L20.8766 25.6773L15.7834 23.6038L13.7602 22.7781C13.2596 22.5943 12.7149 22.4167 12.1184 22.223C11.8383 22.1361 11.5443 22.0469 11.2434 21.9677C10.9107 21.8709 10.5649 21.784 10.2051 21.6871C10.6391 21.6233 11.0507 21.5603 11.4414 21.4965C11.713 21.4488 11.9792 21.3996 12.2291 21.3519C12.8403 21.2389 13.3772 21.1267 13.8476 21.0075L17.2271 20.0872L21.2232 19.0055L23.4599 18.4204L27.972 17.2426L26.4711 13.7483L22.188 14.9661L22.0541 15.0076L18.9632 15.881L18.7652 15.9356L13.1343 17.5378L0.496094 21.1267L9.91032 25.0869L14.4 26.9689L29.4529 33.2963L27.4939 28.3782Z" fill="#550495"/>
<path d="M26.9878 28.3782L24.5971 27.3856L20.3735 25.6773L15.2819 23.6038L13.2594 22.7781C12.7589 22.5943 12.2142 22.4167 11.6177 22.223C11.3376 22.1361 11.0436 22.0469 10.7434 21.9677C10.4107 21.8709 10.0649 21.784 9.70513 21.6871C10.1399 21.6233 10.55 21.5603 10.9415 21.4965C11.213 21.4488 11.4784 21.3996 11.7291 21.3519C12.3395 21.2389 12.8765 21.1267 13.3461 21.0075L16.7248 20.0872L20.7193 19.0055L22.9553 18.4204L27.4667 17.2426L25.9657 13.7483L21.6841 14.9661L21.5503 15.0076L18.4602 15.881L18.2621 15.9356L12.6328 17.5378L0 21.1267L9.41113 25.0869L13.8993 26.9689L28.946 33.2963L26.9878 28.3782Z" fill="#550495"/>
</svg>
